<svg aria-hidden="true" style="position: absolute; width: 0; height: 0; overflow: hidden;" version="1.1" xmlns="http://www.w3.org/2000/svg" xmlns:xlink="http://www.w3.org/1999/xlink">
  <defs>

  <symbol id="arrow-right" viewBox="0 0 16 14">
  <path d="M9.05724 1.71116L14.3457 6.99962M14.3457 6.99962L9.05724 12.2881M14.3457 6.99962H1.6534" stroke="#19191B" stroke-width="1.53846" stroke-linecap="round" stroke-linejoin="round"/>
  </symbol>

  <symbol id="heart-filled" viewBox="0 0 24 24">
  <path xmlns="http://www.w3.org/2000/svg" d="M3.21688 12.1999C1.05354 9.26649 1.77465 4.86642 5.38022 3.39973C8.98579 1.93305 11.1491 4.86642 11.8702 6.33311C12.5914 4.86642 15.4758 1.93305 19.0814 3.39973C22.687 4.86642 22.687 9.26649 20.5236 12.1999C18.3603 15.1332 11.8702 21 11.8702 21C11.8702 21 5.38022 15.1332 3.21688 12.1999Z" fill="#19191B"/>
  </symbol>

  <symbol id="heart" viewBox="0 0 25 24" >
  <path xmlns="http://www.w3.org/2000/svg" d="M3.89937 12.1999C1.73603 9.26649 2.45715 4.86642 6.06272 3.39973C9.66828 1.93305 11.8316 4.86642 12.5527 6.33311C13.2739 4.86642 16.1583 1.93305 19.7639 3.39973C23.3694 4.86642 23.3694 9.26649 21.2061 12.1999C19.0428 15.1332 12.5527 21 12.5527 21C12.5527 21 6.06272 15.1332 3.89937 12.1999Z" fill="none" stroke="white" stroke-width="2" stroke-linecap="round" stroke-linejoin="round"/>
  </symbol>

</defs>
</svg>