<svg width="83" height="26" viewBox="0 0 83 26" fill="none" xmlns="http://www.w3.org/2000/svg">
<g filter="url(#filter0_b_462_2485)">
<rect width="82" height="26" transform="translate(0.650757)" fill="white" fill-opacity="0.64"/>
<path d="M13.6948 17V8.54H17.0788C17.9428 8.54 18.6148 8.732 19.0948 9.116C19.5748 9.5 19.8148 10.044 19.8148 10.748C19.8148 11.276 19.6588 11.716 19.3468 12.068C19.0428 12.42 18.6268 12.652 18.0988 12.764V12.596C18.4988 12.644 18.8428 12.76 19.1308 12.944C19.4188 13.12 19.6388 13.356 19.7908 13.652C19.9428 13.94 20.0188 14.28 20.0188 14.672C20.0188 15.176 19.9068 15.604 19.6828 15.956C19.4668 16.3 19.1508 16.56 18.7348 16.736C18.3188 16.912 17.8148 17 17.2228 17H13.6948ZM14.6548 16.208H17.1268C17.3828 16.208 17.6108 16.188 17.8108 16.148C18.0188 16.108 18.1988 16.048 18.3508 15.968C18.5028 15.88 18.6308 15.776 18.7348 15.656C18.8388 15.536 18.9148 15.392 18.9628 15.224C19.0188 15.056 19.0468 14.868 19.0468 14.66C19.0468 14.444 19.0188 14.256 18.9628 14.096C18.9148 13.928 18.8388 13.784 18.7348 13.664C18.6308 13.536 18.5028 13.432 18.3508 13.352C18.1988 13.272 18.0188 13.212 17.8108 13.172C17.6108 13.132 17.3828 13.112 17.1268 13.112H14.6548V16.208ZM14.6548 12.32H16.9348C17.5588 12.32 18.0308 12.192 18.3508 11.936C18.6788 11.68 18.8428 11.312 18.8428 10.832C18.8428 10.336 18.6788 9.964 18.3508 9.716C18.0308 9.46 17.5588 9.332 16.9348 9.332H14.6548V12.32ZM24.3001 17.108C23.6841 17.108 23.1521 16.988 22.7041 16.748C22.2641 16.5 21.9201 16.152 21.6721 15.704C21.4321 15.256 21.3121 14.72 21.3121 14.096C21.3121 13.488 21.4321 12.96 21.6721 12.512C21.9121 12.056 22.2401 11.7 22.6561 11.444C23.0801 11.188 23.5681 11.06 24.1201 11.06C24.6481 11.06 25.1001 11.176 25.4761 11.408C25.8521 11.64 26.1401 11.968 26.3401 12.392C26.5481 12.816 26.6521 13.324 26.6521 13.916V14.288H22.0561V13.652H26.0041L25.8121 13.808C25.8121 13.168 25.6681 12.672 25.3801 12.32C25.1001 11.96 24.6881 11.78 24.1441 11.78C23.7361 11.78 23.3881 11.876 23.1001 12.068C22.8201 12.252 22.6081 12.512 22.4641 12.848C22.3201 13.176 22.2481 13.56 22.2481 14V14.072C22.2481 14.56 22.3241 14.972 22.4761 15.308C22.6361 15.644 22.8721 15.9 23.1841 16.076C23.4961 16.244 23.8681 16.328 24.3001 16.328C24.6441 16.328 24.9761 16.276 25.2961 16.172C25.6241 16.06 25.9321 15.88 26.2201 15.632L26.5561 16.316C26.2921 16.556 25.9561 16.748 25.5481 16.892C25.1401 17.036 24.7241 17.108 24.3001 17.108ZM30.0269 17.108C29.7229 17.108 29.4269 17.076 29.1389 17.012C28.8589 16.956 28.5949 16.876 28.3469 16.772C28.1069 16.66 27.8989 16.528 27.7229 16.376L28.0349 15.692C28.2269 15.844 28.4349 15.972 28.6589 16.076C28.8829 16.172 29.1109 16.244 29.3429 16.292C29.5749 16.34 29.8109 16.364 30.0509 16.364C30.5069 16.364 30.8509 16.28 31.0829 16.112C31.3149 15.944 31.4309 15.716 31.4309 15.428C31.4309 15.204 31.3549 15.028 31.2029 14.9C31.0509 14.764 30.8109 14.66 30.4829 14.588L29.3909 14.348C28.8869 14.244 28.5109 14.064 28.2629 13.808C28.0229 13.552 27.9029 13.22 27.9029 12.812C27.9029 12.452 27.9949 12.144 28.1789 11.888C28.3709 11.624 28.6389 11.42 28.9829 11.276C29.3269 11.132 29.7269 11.06 30.1829 11.06C30.4549 11.06 30.7149 11.088 30.9629 11.144C31.2109 11.2 31.4429 11.284 31.6589 11.396C31.8829 11.5 32.0749 11.632 32.2349 11.792L31.9109 12.476C31.7589 12.332 31.5869 12.212 31.3949 12.116C31.2029 12.012 31.0029 11.936 30.7949 11.888C30.5949 11.832 30.3909 11.804 30.1829 11.804C29.7349 11.804 29.3949 11.892 29.1629 12.068C28.9309 12.244 28.8149 12.476 28.8149 12.764C28.8149 12.988 28.8869 13.172 29.0309 13.316C29.1749 13.46 29.3989 13.564 29.7029 13.628L30.7949 13.856C31.3149 13.968 31.7029 14.148 31.9589 14.396C32.2229 14.636 32.3549 14.964 32.3549 15.38C32.3549 15.732 32.2589 16.04 32.0669 16.304C31.8749 16.56 31.6029 16.76 31.2509 16.904C30.9069 17.04 30.4989 17.108 30.0269 17.108ZM36.1176 17.108C35.4296 17.108 34.9136 16.924 34.5696 16.556C34.2256 16.188 34.0536 15.664 34.0536 14.984V11.924H32.9136V11.168H34.0536V9.38H35.0256V11.168H36.8736V11.924H35.0256V14.888C35.0256 15.344 35.1216 15.692 35.3136 15.932C35.5056 16.164 35.8176 16.28 36.2496 16.28C36.3776 16.28 36.5056 16.264 36.6336 16.232C36.7616 16.2 36.8776 16.168 36.9816 16.136L37.1496 16.88C37.0456 16.936 36.8936 16.988 36.6936 17.036C36.4936 17.084 36.3016 17.108 36.1176 17.108ZM43.0229 17.108C42.7189 17.108 42.4229 17.076 42.1349 17.012C41.8549 16.956 41.5909 16.876 41.3429 16.772C41.1029 16.66 40.8949 16.528 40.7189 16.376L41.0309 15.692C41.2229 15.844 41.4309 15.972 41.6549 16.076C41.8789 16.172 42.1069 16.244 42.3389 16.292C42.5709 16.34 42.8069 16.364 43.0469 16.364C43.5029 16.364 43.8469 16.28 44.0789 16.112C44.3109 15.944 44.4269 15.716 44.4269 15.428C44.4269 15.204 44.3509 15.028 44.1989 14.9C44.0469 14.764 43.8069 14.66 43.4789 14.588L42.3869 14.348C41.8829 14.244 41.5069 14.064 41.2589 13.808C41.0189 13.552 40.8989 13.22 40.8989 12.812C40.8989 12.452 40.9909 12.144 41.1749 11.888C41.3669 11.624 41.6349 11.42 41.9789 11.276C42.3229 11.132 42.7229 11.06 43.1789 11.06C43.4509 11.06 43.7109 11.088 43.9589 11.144C44.2069 11.2 44.4389 11.284 44.6549 11.396C44.8789 11.5 45.0709 11.632 45.2309 11.792L44.9069 12.476C44.7549 12.332 44.5829 12.212 44.3909 12.116C44.1989 12.012 43.9989 11.936 43.7909 11.888C43.5909 11.832 43.3869 11.804 43.1789 11.804C42.7309 11.804 42.3909 11.892 42.1589 12.068C41.9269 12.244 41.8109 12.476 41.8109 12.764C41.8109 12.988 41.8829 13.172 42.0269 13.316C42.1709 13.46 42.3949 13.564 42.6989 13.628L43.7909 13.856C44.3109 13.968 44.6989 14.148 44.9549 14.396C45.2189 14.636 45.3509 14.964 45.3509 15.38C45.3509 15.732 45.2549 16.04 45.0629 16.304C44.8709 16.56 44.5989 16.76 44.2469 16.904C43.9029 17.04 43.4949 17.108 43.0229 17.108ZM49.4603 17.108C48.8443 17.108 48.3123 16.988 47.8643 16.748C47.4243 16.5 47.0803 16.152 46.8323 15.704C46.5923 15.256 46.4723 14.72 46.4723 14.096C46.4723 13.488 46.5923 12.96 46.8323 12.512C47.0723 12.056 47.4003 11.7 47.8163 11.444C48.2403 11.188 48.7283 11.06 49.2803 11.06C49.8083 11.06 50.2603 11.176 50.6363 11.408C51.0123 11.64 51.3003 11.968 51.5003 12.392C51.7083 12.816 51.8123 13.324 51.8123 13.916V14.288H47.2163V13.652H51.1643L50.9723 13.808C50.9723 13.168 50.8283 12.672 50.5403 12.32C50.2603 11.96 49.8483 11.78 49.3043 11.78C48.8963 11.78 48.5483 11.876 48.2603 12.068C47.9803 12.252 47.7683 12.512 47.6243 12.848C47.4803 13.176 47.4083 13.56 47.4083 14V14.072C47.4083 14.56 47.4843 14.972 47.6363 15.308C47.7963 15.644 48.0323 15.9 48.3443 16.076C48.6563 16.244 49.0283 16.328 49.4603 16.328C49.8043 16.328 50.1363 16.276 50.4563 16.172C50.7843 16.06 51.0923 15.88 51.3803 15.632L51.7163 16.316C51.4523 16.556 51.1163 16.748 50.7083 16.892C50.3003 17.036 49.8843 17.108 49.4603 17.108ZM55.007 17.108C54.415 17.108 53.967 16.932 53.663 16.58C53.367 16.228 53.219 15.724 53.219 15.068V8.54H54.191V14.996C54.191 15.276 54.227 15.512 54.299 15.704C54.379 15.896 54.495 16.04 54.647 16.136C54.799 16.232 54.987 16.28 55.211 16.28C55.307 16.28 55.399 16.276 55.487 16.268C55.583 16.252 55.671 16.232 55.751 16.208L55.727 17.024C55.599 17.048 55.475 17.068 55.355 17.084C55.243 17.1 55.127 17.108 55.007 17.108ZM58.5578 17.108C57.9658 17.108 57.5178 16.932 57.2138 16.58C56.9178 16.228 56.7698 15.724 56.7698 15.068V8.54H57.7418V14.996C57.7418 15.276 57.7778 15.512 57.8498 15.704C57.9298 15.896 58.0458 16.04 58.1978 16.136C58.3498 16.232 58.5378 16.28 58.7618 16.28C58.8578 16.28 58.9498 16.276 59.0378 16.268C59.1338 16.252 59.2218 16.232 59.3018 16.208L59.2778 17.024C59.1498 17.048 59.0258 17.068 58.9058 17.084C58.7938 17.1 58.6778 17.108 58.5578 17.108ZM62.89 17.108C62.274 17.108 61.742 16.988 61.294 16.748C60.854 16.5 60.51 16.152 60.262 15.704C60.022 15.256 59.902 14.72 59.902 14.096C59.902 13.488 60.022 12.96 60.262 12.512C60.502 12.056 60.83 11.7 61.246 11.444C61.67 11.188 62.158 11.06 62.71 11.06C63.238 11.06 63.69 11.176 64.066 11.408C64.442 11.64 64.73 11.968 64.93 12.392C65.138 12.816 65.242 13.324 65.242 13.916V14.288H60.646V13.652H64.594L64.402 13.808C64.402 13.168 64.258 12.672 63.97 12.32C63.69 11.96 63.278 11.78 62.734 11.78C62.326 11.78 61.978 11.876 61.69 12.068C61.41 12.252 61.198 12.512 61.054 12.848C60.91 13.176 60.838 13.56 60.838 14V14.072C60.838 14.56 60.914 14.972 61.066 15.308C61.226 15.644 61.462 15.9 61.774 16.076C62.086 16.244 62.458 16.328 62.89 16.328C63.234 16.328 63.566 16.276 63.886 16.172C64.214 16.06 64.522 15.88 64.81 15.632L65.146 16.316C64.882 16.556 64.546 16.748 64.138 16.892C63.73 17.036 63.314 17.108 62.89 17.108ZM66.6487 17V11.168H67.5967V12.548H67.4767C67.6127 12.076 67.8487 11.72 68.1847 11.48C68.5207 11.232 68.9647 11.088 69.5167 11.048L69.8647 11.012L69.9367 11.852L69.3247 11.924C68.7807 11.972 68.3607 12.148 68.0647 12.452C67.7767 12.748 67.6327 13.156 67.6327 13.676V17H66.6487Z" fill="#19191B"/>
</g>
<defs>
<filter id="filter0_b_462_2485" x="-7.34924" y="-8" width="98" height="42" filterUnits="userSpaceOnUse" color-interpolation-filters="sRGB">
<feFlood flood-opacity="0" result="BackgroundImageFix"/>
<feGaussianBlur in="BackgroundImageFix" stdDeviation="4"/>
<feComposite in2="SourceAlpha" operator="in" result="effect1_backgroundBlur_462_2485"/>
<feBlend mode="normal" in="SourceGraphic" in2="effect1_backgroundBlur_462_2485" result="shape"/>
</filter>
</defs>
</svg>
