<svg width="50" height="26" viewBox="0 0 50 26" fill="none" xmlns="http://www.w3.org/2000/svg">
<g filter="url(#filter0_b_489_3868)">
<rect width="50" height="26" fill="white" fill-opacity="0.64"/>
<path d="M13.044 17V8.54H13.812L19.2 15.728H18.912V8.54H19.824V17H19.08L13.692 9.812H13.968V17H13.044ZM24.4228 17.108C23.8068 17.108 23.2748 16.988 22.8268 16.748C22.3868 16.5 22.0428 16.152 21.7948 15.704C21.5548 15.256 21.4348 14.72 21.4348 14.096C21.4348 13.488 21.5548 12.96 21.7948 12.512C22.0348 12.056 22.3628 11.7 22.7788 11.444C23.2028 11.188 23.6908 11.06 24.2428 11.06C24.7708 11.06 25.2228 11.176 25.5988 11.408C25.9748 11.64 26.2628 11.968 26.4628 12.392C26.6708 12.816 26.7748 13.324 26.7748 13.916V14.288H22.1788V13.652H26.1268L25.9348 13.808C25.9348 13.168 25.7908 12.672 25.5028 12.32C25.2228 11.96 24.8108 11.78 24.2668 11.78C23.8588 11.78 23.5108 11.876 23.2228 12.068C22.9428 12.252 22.7308 12.512 22.5868 12.848C22.4428 13.176 22.3708 13.56 22.3708 14V14.072C22.3708 14.56 22.4468 14.972 22.5988 15.308C22.7588 15.644 22.9948 15.9 23.3068 16.076C23.6188 16.244 23.9908 16.328 24.4228 16.328C24.7668 16.328 25.0988 16.276 25.4188 16.172C25.7468 16.06 26.0548 15.88 26.3428 15.632L26.6788 16.316C26.4148 16.556 26.0788 16.748 25.6708 16.892C25.2628 17.036 24.8468 17.108 24.4228 17.108ZM29.6592 17L27.4872 11.168H28.5072L30.2952 16.28H30.0072L31.8552 11.168H32.6832L34.4952 16.28H34.2192L36.0312 11.168H37.0032L34.8192 17H33.8952L31.9872 11.756H32.5032L30.5952 17H29.6592Z" fill="#19191B"/>
</g>
<defs>
<filter id="filter0_b_489_3868" x="-8" y="-8" width="66" height="42" filterUnits="userSpaceOnUse" color-interpolation-filters="sRGB">
<feFlood flood-opacity="0" result="BackgroundImageFix"/>
<feGaussianBlur in="BackgroundImageFix" stdDeviation="4"/>
<feComposite in2="SourceAlpha" operator="in" result="effect1_backgroundBlur_489_3868"/>
<feBlend mode="normal" in="SourceGraphic" in2="effect1_backgroundBlur_489_3868" result="shape"/>
</filter>
</defs>
</svg>
