<svg width="48" height="26" viewBox="0 0 48 26" fill="none" xmlns="http://www.w3.org/2000/svg">
<g filter="url(#filter0_b_489_529)">
<rect width="48" height="26" fill="white" fill-opacity="0.64"/>
<path d="M15.78 17.108C15.34 17.108 14.924 17.068 14.532 16.988C14.148 16.908 13.792 16.796 13.464 16.652C13.144 16.5 12.852 16.316 12.588 16.1L12.936 15.308C13.208 15.508 13.484 15.68 13.764 15.824C14.052 15.96 14.36 16.064 14.688 16.136C15.024 16.2 15.388 16.232 15.78 16.232C16.5 16.232 17.032 16.1 17.376 15.836C17.728 15.564 17.904 15.208 17.904 14.768C17.904 14.536 17.848 14.336 17.736 14.168C17.632 14 17.456 13.856 17.208 13.736C16.968 13.616 16.652 13.516 16.26 13.436L15.012 13.184C14.26 13.024 13.696 12.764 13.32 12.404C12.952 12.036 12.768 11.548 12.768 10.94C12.768 10.436 12.896 9.996 13.152 9.62C13.416 9.244 13.78 8.952 14.244 8.744C14.716 8.536 15.252 8.432 15.852 8.432C16.236 8.432 16.6 8.472 16.944 8.552C17.288 8.632 17.604 8.752 17.892 8.912C18.188 9.064 18.448 9.252 18.672 9.476L18.324 10.244C17.964 9.916 17.584 9.68 17.184 9.536C16.784 9.384 16.336 9.308 15.84 9.308C15.416 9.308 15.048 9.372 14.736 9.5C14.432 9.628 14.192 9.816 14.016 10.064C13.848 10.304 13.764 10.584 13.764 10.904C13.764 11.288 13.88 11.592 14.112 11.816C14.352 12.04 14.74 12.204 15.276 12.308L16.524 12.572C17.332 12.74 17.928 12.996 18.312 13.34C18.704 13.676 18.9 14.136 18.9 14.72C18.9 15.184 18.772 15.6 18.516 15.968C18.268 16.328 17.908 16.608 17.436 16.808C16.972 17.008 16.42 17.108 15.78 17.108ZM22.1308 17.108C21.7308 17.108 21.3708 17.032 21.0508 16.88C20.7388 16.72 20.4908 16.504 20.3068 16.232C20.1228 15.96 20.0308 15.656 20.0308 15.32C20.0308 14.888 20.1388 14.548 20.3548 14.3C20.5788 14.052 20.9428 13.876 21.4468 13.772C21.9588 13.668 22.6548 13.616 23.5348 13.616H24.0748V14.252H23.5468C23.0588 14.252 22.6508 14.268 22.3228 14.3C21.9948 14.332 21.7348 14.388 21.5428 14.468C21.3508 14.548 21.2148 14.652 21.1348 14.78C21.0548 14.908 21.0148 15.068 21.0148 15.26C21.0148 15.588 21.1268 15.856 21.3508 16.064C21.5828 16.272 21.8948 16.376 22.2868 16.376C22.6068 16.376 22.8868 16.3 23.1268 16.148C23.3748 15.996 23.5668 15.788 23.7028 15.524C23.8468 15.26 23.9188 14.956 23.9188 14.612V13.244C23.9188 12.748 23.8188 12.392 23.6188 12.176C23.4188 11.952 23.0908 11.84 22.6348 11.84C22.2828 11.84 21.9428 11.892 21.6148 11.996C21.2868 12.092 20.9508 12.252 20.6068 12.476L20.2708 11.768C20.4788 11.624 20.7148 11.5 20.9788 11.396C21.2428 11.284 21.5188 11.2 21.8068 11.144C22.0948 11.088 22.3708 11.06 22.6348 11.06C23.1388 11.06 23.5548 11.144 23.8828 11.312C24.2108 11.472 24.4548 11.72 24.6148 12.056C24.7748 12.384 24.8548 12.808 24.8548 13.328V17H23.9428V15.644H24.0508C23.9868 15.948 23.8628 16.208 23.6788 16.424C23.5028 16.64 23.2828 16.808 23.0188 16.928C22.7548 17.048 22.4588 17.108 22.1308 17.108ZM28.4461 17.108C27.8541 17.108 27.4061 16.932 27.1021 16.58C26.8061 16.228 26.6581 15.724 26.6581 15.068V8.54H27.6301V14.996C27.6301 15.276 27.6661 15.512 27.7381 15.704C27.8181 15.896 27.9341 16.04 28.0861 16.136C28.2381 16.232 28.4261 16.28 28.6501 16.28C28.7461 16.28 28.8381 16.276 28.9261 16.268C29.0221 16.252 29.1101 16.232 29.1901 16.208L29.1661 17.024C29.0381 17.048 28.9141 17.068 28.7941 17.084C28.6821 17.1 28.5661 17.108 28.4461 17.108ZM32.7783 17.108C32.1623 17.108 31.6303 16.988 31.1823 16.748C30.7423 16.5 30.3983 16.152 30.1503 15.704C29.9103 15.256 29.7903 14.72 29.7903 14.096C29.7903 13.488 29.9103 12.96 30.1503 12.512C30.3903 12.056 30.7183 11.7 31.1343 11.444C31.5583 11.188 32.0463 11.06 32.5983 11.06C33.1263 11.06 33.5783 11.176 33.9543 11.408C34.3303 11.64 34.6183 11.968 34.8183 12.392C35.0263 12.816 35.1303 13.324 35.1303 13.916V14.288H30.5343V13.652H34.4823L34.2903 13.808C34.2903 13.168 34.1463 12.672 33.8583 12.32C33.5783 11.96 33.1663 11.78 32.6223 11.78C32.2143 11.78 31.8663 11.876 31.5783 12.068C31.2983 12.252 31.0863 12.512 30.9423 12.848C30.7983 13.176 30.7263 13.56 30.7263 14V14.072C30.7263 14.56 30.8023 14.972 30.9543 15.308C31.1143 15.644 31.3503 15.9 31.6623 16.076C31.9743 16.244 32.3463 16.328 32.7783 16.328C33.1223 16.328 33.4543 16.276 33.7743 16.172C34.1023 16.06 34.4103 15.88 34.6983 15.632L35.0343 16.316C34.7703 16.556 34.4343 16.748 34.0263 16.892C33.6183 17.036 33.2023 17.108 32.7783 17.108Z" fill="#19191B"/>
</g>
<defs>
<filter id="filter0_b_489_529" x="-8" y="-8" width="64" height="42" filterUnits="userSpaceOnUse" color-interpolation-filters="sRGB">
<feFlood flood-opacity="0" result="BackgroundImageFix"/>
<feGaussianBlur in="BackgroundImageFix" stdDeviation="4"/>
<feComposite in2="SourceAlpha" operator="in" result="effect1_backgroundBlur_489_529"/>
<feBlend mode="normal" in="SourceGraphic" in2="effect1_backgroundBlur_489_529" result="shape"/>
</filter>
</defs>
</svg>
